# xmcd
#
# Track frame offsets: 
#        150
#        20300
#        34285
#        47121
#        59712
#        74231
#        88024
#        102257
#        114402
#        130539
#        154464
#        156285
#
# Disc length: 2311 seconds
#
# Revision: 3
# Processed by: cddbd v1.5.2PL0 Copyright (c) Steve Scherf et al.
# Submitted via: ExactAudioCopy v1.0b1
#
DISCID=aa09050c
DTITLE=Gunter Gabriel - Das ist meine Art
DYEAR=1974
DGENRE=Country
TTITLE0=Er ist ein Kerl (Der 30-Tonner Diesel)
TTITLE1=Bleib ruhig, Mann
TTITLE2=Dies ist mein Land
TTITLE3=Das ist meine Art zu leben (König der Tramps)
TTITLE4=Der alte Mann und sein großes Haus
TTITLE5=Hey Boss, ich brauch' mehr Geld
TTITLE6=Jeder Mann braucht eine Frau (You Ask Me Too)
TTITLE7=Draußen vor der Tür
TTITLE8=Mach das Licht aus (Snap Your Fingers)
TTITLE9=Man nannte ihn Puma
TTITLE10=20-Sekunden-Lied
TTITLE11=Hey, Yvonne
EXTD=YEAR: 1974
EXTT0=
EXTT1=
EXTT2=
EXTT3=
EXTT4=
EXTT5=
EXTT6=
EXTT7=
EXTT8=
EXTT9=
EXTT10=
EXTT11=
PLAYORDER=
